<svg width="56" height="56" viewBox="0 0 56 56" fill="none" xmlns="http://www.w3.org/2000/svg">
<mask id="mask0_1708_187276" style="mask-type:alpha" maskUnits="userSpaceOnUse" x="2" y="0" width="52" height="56">
<path d="M26.3169 2.13398C27.3653 1.55894 28.6347 1.55894 29.6831 2.13398L50.6639 13.6416C51.7843 14.2561 52.4808 15.4324 52.4808 16.7103V39.2897C52.4808 40.5676 51.7843 41.7439 50.6639 42.3584L29.6831 53.866C28.6347 54.4411 27.3653 54.4411 26.3169 53.866L5.3361 42.3584C4.21568 41.7439 3.51924 40.5676 3.51924 39.2897V16.7103C3.51924 15.4324 4.21568 14.2561 5.3361 13.6416L26.3169 2.13398Z" fill="white" stroke="black" stroke-width="3"/>
</mask>
<g mask="url(#mask0_1708_187276)">
<rect x="-0.67627" y="-1.14062" width="54.8133" height="59.3811" fill="#B491FF"/>
<g style="mix-blend-mode:multiply">
<path d="M5.54045 -1.89761C8.71222 -1.62571 11.3011 0.752098 11.8411 3.88937L18.6175 43.2569C19.4948 48.354 14.732 52.6096 9.76551 51.1663L-28.3499 40.0897C-31.1112 39.2872 -33.1008 36.8777 -33.3665 34.0145L-36.2638 2.7887C-36.6668 -1.55479 -33.042 -5.205 -28.6958 -4.83243L5.54045 -1.89761Z" fill="#B491FF"/>
</g>
<g style="mix-blend-mode:multiply">
<path d="M63.0642 49.3503C66.1926 50.3543 68.2018 53.3989 67.8945 56.67L66.2359 74.3294C65.9027 77.8772 62.9574 80.6085 59.3946 80.6737L-5.14693 81.854C-9.53939 81.9343 -12.9193 77.9958 -12.1733 73.6664L-5.62752 35.682C-4.90506 31.4896 -0.640874 28.9056 3.40983 30.2056L63.0642 49.3503Z" fill="#20BEFF" fill-opacity="0.8"/>
</g>
<path d="M18.8201 19.7303C20.9801 22.3303 36.2062 35.1535 37.2262 36.2135C38.2462 37.2735 37.7562 39.4535 36.9962 40.2335C36.2362 41.0135 35.2662 42.0935 34.8962 42.0935C34.5262 42.0935 32.7362 42.3735 31.4062 40.9835C30.0762 39.5935 14.6701 22.4503 14.6701 22.4503C14.6701 22.4503 14.0003 20.1113 15.5001 19.1103C16.9999 18.1094 17.7678 18.4636 18.8201 19.7303Z" fill="white"/>
<path d="M15.6986 19.1933C15.4767 18.6386 15.9482 18.2226 16.4289 18.084C17.3996 17.7882 18.3055 18.3243 18.9527 18.9067C22.1143 22.0221 25.5902 24.8324 28.9644 27.7444L35.2506 33.0877C35.8145 33.6054 37.0903 34.65 37.6357 35.1862C38.9484 36.6099 38.5694 38.9672 37.3676 40.2799C36.6835 40.9085 35.8215 41.9413 34.8878 42.2926C34.592 42.3665 34.3331 42.348 33.9818 42.3573C32.7986 42.3943 31.3657 41.8488 30.5891 40.9059C30.1639 40.4344 28.9529 39.1032 28.4999 38.6133C25.7265 35.5626 20.1521 29.4335 17.388 26.3829C16.8981 25.745 14.134 23.0641 13.9214 22.3246C13.5516 21.5295 13.9976 20.2749 14.6263 19.6648C14.9406 19.2858 15.1902 19.1471 15.6986 19.1933ZM15.9667 19.4337C15.9112 19.8219 15.6616 20.0808 15.4398 20.3396C15.1162 20.7649 15.107 21.2178 15.3196 21.6893C15.4675 22.1053 18.3333 24.9156 18.6661 25.3409L24.3329 31.322C25.3683 32.4221 30.4897 37.8209 31.4142 38.8008C31.7377 39.1151 32.3386 39.8639 32.7361 40.0488C33.2816 40.3908 34.0673 40.4463 34.7422 40.3816C34.7514 40.3816 34.8624 40.3816 34.7976 40.3816C34.7422 40.3816 34.6775 40.4001 34.6405 40.4093C34.6128 40.4093 34.5665 40.4371 34.585 40.4278C34.8254 40.2614 35.075 40.0026 35.3338 39.7345C35.417 39.6605 36.0919 38.9302 36.1566 38.8747C36.5264 38.3571 36.6743 37.5251 36.5448 36.9704C36.4062 36.425 35.9809 36.2678 35.5927 35.8703L34.0304 34.5391L27.7719 29.1588C24.4254 26.1636 20.894 23.4088 17.945 19.9698C17.6215 19.637 17.2332 19.2858 16.8079 19.3412C16.5306 19.4706 16.4104 19.4059 15.9852 19.4244L15.9667 19.4337Z" fill="black"/>
<path d="M20.2284 22.5175C20.5612 22.8873 20.5612 22.9151 20.5427 22.9335C20.3578 23.8395 19.4149 24.3479 18.7031 24.8379C18.4535 24.9766 18.2223 25.2262 17.9358 25.2539C17.8988 25.3279 17.1223 24.5236 17.2055 24.4866C17.3903 23.9412 17.8803 23.4882 18.1946 22.9983C18.5921 22.5823 19.0266 22.0461 19.6367 21.9814C19.609 21.9074 20.062 22.3234 20.2284 22.5175Z" fill="black"/>
<path d="M19.71 35C20.31 36.89 20.79 38.78 23.61 39.5C22.13 39.83 20.23 41.19 19.86 43.34C19.57 41.14 18.45 39.98 16 39.46C16 39.46 19.55 39.17 19.72 35H19.71Z" fill="white" stroke="black" stroke-width="1.8" stroke-linecap="round" stroke-linejoin="round"/>
<path d="M36.3632 17C37.2314 19.7273 37.9211 22.4427 42 23.4743C39.8714 23.9486 37.1124 25.9051 36.5773 29C36.1611 25.834 34.5438 24.1621 31 23.415C31 23.415 36.1373 23 36.3632 17Z" fill="white" stroke="black" stroke-width="1.8" stroke-linecap="round" stroke-linejoin="round"/>
<path d="M26.933 12.6133C27.4018 14.1958 27.7902 15.7783 30 16.3913C28.8348 16.6622 27.3348 17.8027 27.0402 19.6133C26.8125 17.7742 25.9286 16.7905 24 16.3628C24 16.3628 26.7991 16.1204 26.933 12.6275V12.6133Z" fill="white" stroke="black" stroke-width="1.8" stroke-linecap="round" stroke-linejoin="round"/>
<path fill-rule="evenodd" clip-rule="evenodd" d="M49.4615 15.8339L28.4807 4.32635C28.1812 4.16205 27.8185 4.16205 27.5189 4.32635L6.53815 15.8339C6.21803 16.0095 6.01904 16.3456 6.01904 16.7107V39.2901C6.01904 39.6552 6.21803 39.9913 6.53815 40.1669L27.5189 51.6745C27.8185 51.8388 28.1812 51.8388 28.4807 51.6745L49.4615 40.1669C49.7816 39.9913 49.9806 39.6552 49.9806 39.2901V16.7107C49.9806 16.3456 49.7816 16.0095 49.4615 15.8339ZM30.4043 0.81924C28.9065 -0.00224644 27.0931 -0.00224674 25.5953 0.81924L4.61456 12.3268C3.01396 13.2047 2.01904 14.8852 2.01904 16.7107V39.2901C2.01904 41.1157 3.01396 42.7961 4.61456 43.674L25.5953 55.1816C27.0931 56.0031 28.9065 56.0031 30.4043 55.1816L51.3851 43.674C52.9856 42.7961 53.9806 41.1157 53.9806 39.2901V16.7107C53.9806 14.8852 52.9856 13.2047 51.3851 12.3268L30.4043 0.81924Z" fill="#8148FD"/>
<path fill-rule="evenodd" clip-rule="evenodd" d="M47.1894 15.6467L29.6727 6.11695C28.6298 5.54956 27.3703 5.54956 26.3274 6.11695L8.81077 15.6467C7.68448 16.2595 6.9834 17.439 6.9834 18.7212V37.2775C6.9834 38.5597 7.68448 39.7392 8.81076 40.352L26.3274 49.8817C27.3703 50.4491 28.6298 50.4491 29.6727 49.8817L47.1894 40.352C48.3156 39.7392 49.0167 38.5597 49.0167 37.2775V18.7212C49.0167 17.439 48.3156 16.2595 47.1894 15.6467ZM30.3895 4.79932C28.8997 3.98877 27.1005 3.98877 25.6106 4.79932L8.09392 14.3291C6.48495 15.2045 5.4834 16.8895 5.4834 18.7212V37.2775C5.4834 39.1092 6.48495 40.7942 8.09392 41.6696L25.6106 51.1994C27.1005 52.0099 28.8997 52.0099 30.3895 51.1994L47.9062 41.6696C49.5152 40.7942 50.5167 39.1092 50.5167 37.2775V18.7212C50.5167 16.8895 49.5152 15.2045 47.9062 14.3291L30.3895 4.79932Z" fill="white"/>
</g>
</svg>
