<svg width="56" height="56" viewBox="0 0 56 56" fill="none" xmlns="http://www.w3.org/2000/svg">
<mask id="mask0_1235_87064" style="mask-type:alpha" maskUnits="userSpaceOnUse" x="2" y="0" width="52" height="56">
<path d="M29.6831 2.13398L50.6639 13.6416C51.7843 14.2561 52.4808 15.4324 52.4808 16.7103V39.2897C52.4808 40.5676 51.7843 41.7439 50.6639 42.3584L29.6831 53.866C28.6347 54.4411 27.3653 54.4411 26.3169 53.866L5.3361 42.3584C4.21568 41.7439 3.51924 40.5676 3.51924 39.2897V16.7103C3.51924 15.4324 4.21568 14.2561 5.3361 13.6416L26.3169 2.13398C27.3653 1.55894 28.6347 1.55894 29.6831 2.13398Z" fill="white" stroke="black" stroke-width="3"/>
</mask>
<g mask="url(#mask0_1235_87064)">
<rect x="1.02881" y="1.92578" width="48.7922" height="52.8583" fill="#20BEFF"/>
<g style="mix-blend-mode:multiply">
<path d="M30.0877 25.1338C32.6871 22.5303 36.8582 22.3833 39.6345 24.7972L51.0799 34.7492C52.012 35.5597 52.7131 36.6024 53.1119 37.7714L57.5863 50.887C58.4344 53.3731 57.8193 56.1249 55.9932 58.0132L46.4549 67.8768C44.4497 69.9504 41.3778 70.5817 38.7174 69.4668L16.4424 60.1324C12.9447 58.6667 11.2503 54.6822 12.6211 51.1462L17.4869 38.5945C17.838 37.6889 18.3737 36.8662 19.06 36.1789L30.0877 25.1338Z" fill="#71D78A"/>
</g>
<g style="mix-blend-mode:multiply" opacity="0.5">
<path d="M61.1953 -7.79419C63.2531 -5.64952 63.7321 -2.43923 62.3901 0.212722L45.8397 32.9184C44.8556 34.8631 43.0217 36.2385 40.8792 36.6387L29.1192 38.8353C26.9311 39.244 24.679 38.5876 23.0531 37.0674L3.24817 18.5493C0.77042 16.2325 0.310326 12.4726 2.15633 9.62678L23.0094 -22.5208C24.2494 -24.4324 26.3421 -25.6208 28.619 -25.7064L40.334 -26.1471C42.3309 -26.2222 44.2647 -25.4403 45.6482 -23.9984L61.1953 -7.79419Z" fill="#20BEFF"/>
</g>
</g>
<g clip-path="url(#clip0_1235_87064)">
<path d="M13.0586 31.0121C12.9927 30.922 12.9606 30.8673 12.9182 30.8218C11.8205 29.6458 10.7234 28.47 9.6227 27.2965C9.44682 27.1089 9.25475 26.9362 9.07603 26.7516C8.98683 26.66 8.89459 26.5655 8.8297 26.4569C8.52442 25.9454 8.74717 25.3054 9.31107 25.1121C9.50373 25.0458 9.72093 25.0334 9.92753 25.0294C12.3722 24.9791 14.8166 24.998 17.2596 25.1159C18.0144 25.1525 18.7692 25.1941 19.5233 25.2437C19.7954 25.2616 20.0673 25.2997 20.3362 25.3482C20.4759 25.3736 20.6135 25.4302 20.7418 25.4935C20.8827 25.5626 20.8853 25.781 21.0813 25.811C21.2272 25.8334 21.3452 25.925 21.4364 26.0446C21.5493 26.1922 21.5671 26.368 21.5927 26.5441C21.7395 27.5486 21.8012 28.559 21.8231 29.5732C21.8612 31.3257 21.8994 33.0781 21.934 34.8307C21.938 35.0391 21.9355 35.2507 21.9077 35.4566C21.8384 35.9662 21.5033 36.2568 20.9926 36.2707C20.9284 36.2724 20.8636 36.27 20.7999 36.2632C19.023 36.0719 17.2376 36.0332 15.4546 35.9456C13.5752 35.8537 11.6951 35.7766 9.81516 35.6917C9.68714 35.6861 9.55572 35.6833 9.43243 35.6526C8.88599 35.5175 8.64605 34.9574 8.94277 34.4805C9.0507 34.3067 9.20417 34.1523 9.36264 34.02C9.86822 33.5971 10.3856 33.1875 10.8994 32.7748C11.5518 32.2511 12.2057 31.7302 12.858 31.2061C12.9194 31.1566 12.9721 31.0967 13.0591 31.0124L13.0586 31.0121ZM20.253 26.1141C19.5281 26.1974 18.8582 26.2843 18.1867 26.3496C16.1041 26.5537 14.0194 26.7258 11.9275 26.8027C11.8044 26.8073 11.6824 26.8395 11.5144 26.8662C11.6165 27.0057 11.6838 27.1114 11.7642 27.2063C12.2323 27.759 12.7019 28.3107 13.1734 28.8606C13.6554 29.4223 14.1437 29.9786 14.6224 30.5435C14.9655 30.9481 14.9436 31.3711 14.5694 31.7488C14.4676 31.8512 14.3541 31.9426 14.2434 32.036C13.4812 32.6799 12.7171 33.322 11.9556 33.967C11.8783 34.0327 11.7602 34.0795 11.784 34.2418C11.9145 34.255 12.0393 34.2724 12.1653 34.279C13.2422 34.3338 14.3191 34.3886 15.3958 34.4394C16.8105 34.5059 18.2252 34.5706 19.64 34.6307C19.8101 34.6378 19.9913 34.6842 20.1675 34.5719C20.1731 34.4732 20.1849 34.3788 20.1826 34.2845C20.1474 32.7398 20.1064 31.1958 20.0762 29.6511C20.0586 28.7504 20.0301 27.8485 20.1391 26.9501C20.1715 26.6824 20.2119 26.4158 20.2529 26.1137L20.253 26.1141Z" fill="#202124"/>
<path d="M42.9409 30.8363C43.0068 30.7462 43.0389 30.6915 43.0813 30.6461C44.179 29.47 45.2762 28.2942 46.3768 27.1207C46.5527 26.9331 46.7448 26.7604 46.9235 26.5759C47.0127 26.4842 47.1049 26.3898 47.1698 26.2811C47.4751 25.7696 47.2523 25.1296 46.6884 24.9363C46.4958 24.87 46.2786 24.8577 46.072 24.8536C43.6273 24.8033 41.1829 24.8222 38.7399 24.9401C37.9851 24.9767 37.2303 25.0183 36.4762 25.068C36.2041 25.0858 35.9322 25.1239 35.6634 25.1724C35.5236 25.1978 35.386 25.2545 35.2577 25.3177C35.1168 25.3868 35.1142 25.6052 34.9182 25.6352C34.7724 25.6576 34.6543 25.7493 34.5631 25.8688C34.4502 26.0164 34.4324 26.1923 34.4068 26.3683C34.26 27.3729 34.1983 28.3832 34.1764 29.3974C34.1383 31.1499 34.1001 32.9024 34.0656 34.6549C34.0615 34.8633 34.064 35.0749 34.0918 35.2808C34.1611 35.7904 34.4963 36.081 35.0069 36.095C35.0711 36.0966 35.1359 36.0942 35.1996 36.0875C36.9765 35.8961 38.7619 35.8574 40.5449 35.7699C42.4244 35.6779 44.3044 35.6009 46.1843 35.5159C46.3124 35.5104 46.4438 35.5075 46.5671 35.4768C47.1135 35.3418 47.3535 34.7817 47.0567 34.3047C46.9488 34.1309 46.7953 33.9765 46.6369 33.8442C46.1313 33.4213 45.6139 33.0117 45.1001 32.599C44.4478 32.0753 43.7938 31.5544 43.1416 31.0303C43.0801 30.9809 43.0274 30.9209 42.9404 30.8366L42.9409 30.8363ZM35.7465 25.9383C36.4714 26.0216 37.1413 26.1085 37.8129 26.1738C39.8954 26.3779 41.9801 26.5501 44.072 26.6269C44.1951 26.6315 44.3171 26.6637 44.4851 26.6904C44.383 26.8299 44.3157 26.9357 44.2353 27.0306C43.7672 27.5832 43.2976 28.1349 42.8261 28.6848C42.3441 29.2465 41.8558 29.8029 41.3771 30.3678C41.034 30.7723 41.0559 31.1954 41.4301 31.573C41.5319 31.6755 41.6454 31.7668 41.7561 31.8602C42.5183 32.5041 43.2824 33.1462 44.0439 33.7913C44.1212 33.8569 44.2393 33.9037 44.2156 34.066C44.085 34.0792 43.9602 34.0966 43.8342 34.1032C42.7573 34.158 41.6804 34.2128 40.6037 34.2636C39.189 34.3301 37.7744 34.3948 36.3595 34.4549C36.1894 34.4621 36.0083 34.5084 35.832 34.3961C35.8264 34.2974 35.8146 34.203 35.8169 34.1087C35.8521 32.5641 35.8931 31.02 35.9233 29.4753C35.9409 28.5746 35.9694 27.6727 35.8604 26.7743C35.828 26.5066 35.7876 26.24 35.7466 25.9379L35.7465 25.9383Z" fill="#202124"/>
<path d="M20.2517 26.1153C20.2103 26.4175 20.1703 26.6841 20.138 26.9518C20.0292 27.8496 20.0573 28.7517 20.075 29.6528C20.1052 31.1975 20.1468 32.7418 20.1814 34.2862C20.1838 34.3805 20.1715 34.475 20.1663 34.5736C19.9901 34.6859 19.809 34.6395 19.6388 34.6324C18.224 34.5723 16.8093 34.5076 15.3946 34.441C14.3175 34.3904 13.2406 34.3356 12.1641 34.2807C12.0386 34.2744 11.9133 34.2566 11.7828 34.2435C11.7593 34.0806 11.877 34.0339 11.9544 33.9687C12.7159 33.3237 13.4795 32.6813 14.2422 32.0377C14.3529 31.9443 14.4664 31.8529 14.5682 31.7504C14.9426 31.3732 14.9643 30.9498 14.6212 30.5452C14.1426 29.9807 13.6543 29.4244 13.1722 28.8622C12.7008 28.3124 12.2312 27.761 11.7631 27.208C11.6826 27.1131 11.6153 27.0074 11.5133 26.8678C11.6813 26.8412 11.8033 26.8089 11.9263 26.8044C14.0182 26.7275 16.1029 26.5554 18.1855 26.3513C18.8573 26.2854 19.5269 26.1991 20.2518 26.1158L20.2517 26.1153Z" fill="white"/>
<path d="M35.7439 25.9396C35.7853 26.2418 35.8253 26.5083 35.8576 26.776C35.9664 27.6739 35.9383 28.5759 35.9206 29.477C35.8904 31.0217 35.8488 32.566 35.8142 34.1104C35.8118 34.2047 35.8241 34.2992 35.8293 34.3978C36.0055 34.5101 36.1866 34.4637 36.3568 34.4566C37.7716 34.3965 39.1863 34.3318 40.601 34.2653C41.6781 34.2146 42.755 34.1598 43.8315 34.1049C43.957 34.0986 44.0823 34.0808 44.2128 34.0677C44.2363 33.9048 44.1186 33.8581 44.0412 33.7929C43.2797 33.1479 42.5161 32.5055 41.7534 31.8619C41.6427 31.7685 41.5292 31.6771 41.4274 31.5747C41.053 31.1975 41.0313 30.774 41.3744 30.3694C41.853 29.805 42.3413 29.2486 42.8234 28.6865C43.2948 28.1366 43.7644 27.5853 44.2325 27.0322C44.313 26.9373 44.3803 26.8316 44.4823 26.6921C44.3143 26.6654 44.1923 26.6331 44.0693 26.6286C41.9774 26.5517 39.8927 26.3796 37.8101 26.1755C37.1383 26.1096 36.4687 26.0233 35.7438 25.94L35.7439 25.9396Z" fill="white"/>
<path d="M15.964 17.2263C15.8321 17.0709 15.7256 16.9644 15.6414 16.8425C15.23 16.2487 15.3978 15.4847 16.0269 15.1315C16.1911 15.0391 16.3818 14.9744 16.5684 14.9444C16.9687 14.8796 17.3736 14.8178 17.7779 14.8043C19.2105 14.756 20.6437 14.7172 22.0763 14.6966C25.0498 14.6536 28.0238 14.6307 30.9973 14.5877C32.9449 14.5594 34.8913 14.5683 36.8359 14.686C37.092 14.7013 37.3474 14.7354 37.604 14.7425C37.8801 14.7501 38.1561 14.7342 38.4327 14.7313C38.6022 14.7295 38.7782 14.706 38.9407 14.7413C39.5557 14.8743 39.8953 15.2787 39.8441 15.9326C39.8123 16.3346 39.8924 16.6942 40.0077 17.0585C40.3003 17.9838 40.4091 18.939 40.4939 19.899C40.9671 25.2656 40.0672 30.3867 37.7164 35.2389C36.8147 37.1 35.6617 38.7927 34.1756 40.2448C33.0308 41.3636 31.7383 42.2547 30.2439 42.851C28.2539 43.6449 26.2805 43.6167 24.3117 42.7874C22.8473 42.1706 21.5931 41.2612 20.5425 40.0723C19.4301 38.8139 18.5178 37.4261 17.8221 35.8934C16.5914 33.1831 15.8127 30.3532 15.4813 27.3945C15.2229 25.0896 15.1711 22.7836 15.4072 20.477C15.496 19.6065 15.6797 18.746 15.8251 17.8819C15.8604 17.6724 15.9139 17.4652 15.9651 17.2263H15.964ZM17.0187 17.4635C16.9863 17.7254 16.9486 17.9549 16.9316 18.1862C16.9004 18.6129 16.8857 19.0408 16.8568 19.4681C16.7056 21.6941 16.7179 23.916 17.0169 26.1314C17.3212 28.3868 17.8415 30.5857 18.679 32.7093C19.3294 34.3584 20.2341 35.8511 21.3376 37.2277C22.0945 38.1718 22.9933 38.9717 24.0462 39.5632C26.3434 40.8545 28.6506 40.8563 30.9308 39.4955C31.5029 39.1541 32.0132 38.7298 32.4852 38.2595C33.3863 37.3625 34.1308 36.3466 34.7606 35.2454C35.5287 33.9023 36.1161 32.4809 36.577 31.0059C37.5028 28.0395 37.8836 24.9878 37.9407 21.8948C37.9695 20.3345 37.873 18.7725 37.8565 17.2116C37.8524 16.8031 37.7394 16.4647 37.4734 16.1468C37.3021 16.1627 37.1326 16.1721 36.9648 16.1945C34.7571 16.4888 32.537 16.6318 30.3134 16.7419C28.6889 16.8219 27.0656 16.9232 25.4423 17.0173C23.2846 17.1427 21.1275 17.2739 18.9698 17.3952C18.3524 17.4299 17.7332 17.4393 17.0187 17.4635Z" fill="#202124"/>
<path d="M17.0183 17.4651C17.7322 17.4409 18.3514 17.4315 18.9694 17.3968C21.1271 17.2756 23.2842 17.1443 25.4419 17.0189C27.0658 16.9248 28.6891 16.8235 30.3129 16.7435C32.536 16.6334 34.7561 16.491 36.9644 16.1961C37.1321 16.1737 37.3011 16.1643 37.4729 16.1484C37.739 16.4663 37.852 16.8053 37.8561 17.2132C37.8726 18.7747 37.9691 20.3367 37.9402 21.8964C37.8832 24.9888 37.5024 28.0411 36.5765 31.0075C36.1163 32.4831 35.5283 33.9039 34.7602 35.247C34.1304 36.3482 33.3859 37.3641 32.4848 38.2611C32.0127 38.7308 31.5024 39.1551 30.9303 39.4971C28.6502 40.8579 26.343 40.8561 24.0458 39.5648C22.9934 38.9733 22.0947 38.1734 21.3372 37.2293C20.2336 35.8527 19.329 34.3595 18.6786 32.7109C17.8411 30.5873 17.3208 28.3884 17.0165 26.133C16.7181 23.9182 16.7057 21.6957 16.8564 19.4697C16.8852 19.043 16.9 18.6146 16.9311 18.1878C16.9482 17.9565 16.9859 17.727 17.0183 17.4651Z" fill="white"/>
<path d="M26.7674 19.8282C29.2419 19.8282 31.7163 19.8155 34.1904 19.8355C35.0231 19.8421 35.8549 19.9297 36.6867 19.9871C36.8403 19.9979 36.9928 20.0381 37.1433 20.0736C37.2467 20.0979 37.3171 20.1669 37.333 20.2757C37.3474 20.3752 37.2755 20.4837 37.1452 20.5253C36.9842 20.577 36.8185 20.6156 36.6525 20.6484C35.7915 20.8185 34.9196 20.9157 34.0458 20.9767C31.5779 21.1488 29.1089 21.3096 26.6394 21.4624C25.3553 21.5419 24.0689 21.5851 22.7848 21.6622C21.176 21.7591 19.5683 21.8744 17.9603 21.9797C17.7347 21.9944 17.5084 22.0098 17.2828 22.0044C16.9892 21.9971 16.7325 21.8833 16.5214 21.6796C16.1251 21.2973 16.1099 20.7217 16.4833 20.3189C16.6723 20.1148 16.9079 19.9929 17.1833 19.9559C17.3365 19.9351 17.4928 19.9254 17.6476 19.9277C20.6879 19.9748 23.7275 19.8949 26.767 19.8286L26.7674 19.8282Z" fill="#202124"/>
<path d="M28.7884 31.5584C28.9532 31.5351 29.0616 31.5172 29.1708 31.5054C29.3662 31.4836 29.5574 31.5008 29.7448 31.5653C30.4921 31.8225 30.7638 32.6954 30.294 33.3316C30.1597 33.5136 29.9856 33.6506 29.7895 33.7579C29.4612 33.9373 29.1273 34.1067 28.7991 34.2861C28.5319 34.4323 28.267 34.5827 28.006 34.7395C27.5877 34.9906 27.1449 35.1868 26.6797 35.3284C26.3126 35.4402 25.9408 35.4406 25.5756 35.3112C24.5672 34.954 24.2959 33.7339 25.055 32.9816C25.2989 32.7396 25.597 32.5969 25.9233 32.5137C26.479 32.3725 26.3759 32.3843 26.5183 31.8981C26.7324 31.1668 26.9488 30.436 27.1556 29.7024C27.2533 29.3559 27.3346 29.0044 27.4167 28.6536C27.4377 28.5635 27.4335 28.4677 27.4434 28.341C27.3488 28.383 27.2862 28.4071 27.227 28.4376C27.1285 28.4884 27.0366 28.5532 26.9347 28.5948C26.4549 28.791 25.9813 28.5013 25.9511 27.9857C25.9431 27.8514 25.9637 27.7056 26.0111 27.5804C26.0691 27.4273 26.1523 27.277 26.2545 27.1491C26.6549 26.6476 27.1205 26.2129 27.664 25.869C27.8136 25.7744 27.9838 25.6965 28.1552 25.6538C28.6605 25.5278 29.1063 25.7732 29.2799 26.2618C29.3257 26.3904 29.3479 26.5301 29.3639 26.6667C29.428 27.2079 29.391 27.7487 29.3074 28.283C29.1876 29.0494 29.0391 29.8112 28.9044 30.5753C28.8636 30.8073 28.8235 31.0394 28.7899 31.2725C28.7784 31.3512 28.788 31.4325 28.788 31.5592L28.7884 31.5584Z" fill="#202124"/>
</g>
<path fill-rule="evenodd" clip-rule="evenodd" d="M49.4615 15.8339L28.4807 4.32635C28.1812 4.16205 27.8185 4.16205 27.5189 4.32635L6.53815 15.8339C6.21803 16.0095 6.01904 16.3456 6.01904 16.7107V39.2901C6.01904 39.6552 6.21803 39.9913 6.53815 40.1669L27.5189 51.6745C27.8185 51.8388 28.1812 51.8388 28.4807 51.6745L49.4615 40.1669C49.7816 39.9913 49.9806 39.6552 49.9806 39.2901V16.7107C49.9806 16.3456 49.7816 16.0095 49.4615 15.8339ZM30.4043 0.81924C28.9065 -0.00224644 27.0931 -0.00224674 25.5953 0.81924L4.61456 12.3268C3.01396 13.2047 2.01904 14.8852 2.01904 16.7107V39.2901C2.01904 41.1157 3.01396 42.7961 4.61456 43.674L25.5953 55.1816C27.0931 56.0031 28.9065 56.0031 30.4043 55.1816L51.3851 43.674C52.9856 42.7961 53.9806 41.1157 53.9806 39.2901V16.7107C53.9806 14.8852 52.9856 13.2047 51.3851 12.3268L30.4043 0.81924Z" fill="#20BEFF"/>
<path fill-rule="evenodd" clip-rule="evenodd" d="M47.1894 15.6467L29.6727 6.11695C28.6298 5.54956 27.3703 5.54956 26.3274 6.11695L8.81077 15.6467C7.68448 16.2595 6.9834 17.439 6.9834 18.7212V37.2775C6.9834 38.5597 7.68448 39.7392 8.81076 40.352L26.3274 49.8817C27.3703 50.4491 28.6298 50.4491 29.6727 49.8817L47.1894 40.352C48.3156 39.7392 49.0167 38.5597 49.0167 37.2775V18.7212C49.0167 17.439 48.3156 16.2595 47.1894 15.6467ZM30.3895 4.79932C28.8997 3.98877 27.1005 3.98877 25.6106 4.79932L8.09392 14.3291C6.48495 15.2045 5.4834 16.8895 5.4834 18.7212V37.2775C5.4834 39.1092 6.48495 40.7942 8.09392 41.6696L25.6106 51.1994C27.1005 52.0099 28.8997 52.0099 30.3895 51.1994L47.9062 41.6696C49.5152 40.7942 50.5167 39.1092 50.5167 37.2775V18.7212C50.5167 16.8895 49.5152 15.2045 47.9062 14.3291L30.3895 4.79932Z" fill="white"/>
<defs>
<clipPath id="clip0_1235_87064">
<rect width="40" height="40" fill="white" transform="translate(8 8)"/>
</clipPath>
</defs>
</svg>
